<svg clip-rule="evenodd" fill-rule="evenodd" stroke-linejoin="round" stroke-miterlimit="1.41421" viewBox="0 0 992 132" xmlns="http://www.w3.org/2000/svg"><g fill="#ebebeb"><g fill-rule="nonzero"><path d="m16.453 76.832v51.869h-15.128v-126.07h45.025c6.483 0 12.126.931 16.929 2.792s8.795 4.352 11.977 7.474 5.583 6.754 7.204 10.896 2.431 8.495 2.431 13.057v5.403c0 4.563-.81 8.945-2.431 13.148-1.621 4.202-4.052 7.894-7.294 11.076-3.242 3.181-7.264 5.703-12.067 7.564s-10.386 2.791-16.749 2.791zm0-14.047h28.096c16.809 0 25.214-7.204 25.214-21.612v-3.242c0-6.364-2.071-11.497-6.214-15.399-4.142-3.902-10.476-5.853-19-5.853h-28.096z"/><path d="m108.361 2.665h15.128l-.09 126.036h-15.129l.091-126.036z"/><path d="m162.61 2.631 28.275 55.831h3.242l28.276-55.831h16.569l-31.517 61.775v2.161l31.517 62.134h-16.569l-28.276-56.191h-3.242l-28.275 56.191h-16.569l31.517-62.134v-2.161l-31.517-61.775h16.569z"/><path d="m260.044 2.631h76.362v14.048h-61.234v41.783h60.154v14.048h-60.154v42.143h62.315v14.048h-77.443z"/><path d="m364.502 2.631h15.128v112.022h65.917v14.048h-81.045z"/></g><path d="m951.629 101.432h38v28.69h-38z" fill-opacity=".601726"/><path d="m500.957 132.034c28.483 0 46.768-15.296 46.768-39.559 0-17.934-10.901-30.593-30.592-36.571l-13.539-4.395c-10.9-3.341-15.999-7.209-15.999-13.714 0-6.329 4.923-10.197 12.483-10.197 14.241 0 16.351 13.713 16.351 13.713l28.483-10.021s-7.209-30.593-45.361-30.593c-26.725 0-43.604 14.769-43.604 38.329 0 18.285 10.901 31.12 31.472 37.098l12.483 3.868c10.022 2.813 14.769 6.505 14.769 13.714 0 7.032-5.626 11.252-14.241 11.252-15.472 0-17.758-16.175-17.758-16.175l-28.483 8.263s7.385 34.988 46.768 34.988z" fill-rule="nonzero"/><path d="m593.262 99.859v-97.228h-32.526v127.469h86.327v-30.241z" fill-rule="nonzero"/><path d="m659.37 2.631h32.702v127.469h-32.702z" fill-rule="nonzero"/><path d="m802.135 50.454 30.417-11.604c-10.901-23.384-30.768-38.153-60.13-38.153-38.504 0-66.987 27.78-66.987 65.581 0 38.68 28.658 65.756 66.284 65.756 30.241 0 51.691-15.296 61.536-39.208l-30.24-11.779c-5.627 13.889-15.648 20.57-31.12 20.57-19.516 0-33.582-13.713-33.582-35.339 0-21.274 14.241-35.516 33.933-35.516 14.242 0 23.736 6.506 29.889 19.692z" fill-rule="nonzero"/><path d="m877.21 101.442v-22.329h53.801v-26.549h-53.801v-21.45h57.317v-28.483h-89.492v127.469h90.196v-28.658z" fill-rule="nonzero"/></g></svg>