<?xml version="1.0" encoding="UTF-8" standalone="no"?><!DOCTYPE svg PUBLIC "-//W3C//DTD SVG 1.1//EN" "http://www.w3.org/Graphics/SVG/1.1/DTD/svg11.dtd"><svg width="100%" height="100%" viewBox="0 0 800 450" version="1.1" xmlns="http://www.w3.org/2000/svg" xmlns:xlink="http://www.w3.org/1999/xlink" xml:space="preserve" xmlns:serif="http://www.serif.com/" style="fill-rule:evenodd;clip-rule:evenodd;stroke-linejoin:round;stroke-miterlimit:1.41421;"><g id="Headline"><g><path d="M47.677,128.67c28.574,0 46.881,-15.57 46.881,-40.208c0,-17.281 -10.95,-30.285 -29.942,-36.444l-11.977,-3.935c-8.897,-2.909 -13.174,-5.304 -13.174,-9.753c0,-3.764 2.908,-6.16 7.357,-6.16c10.779,0 12.148,11.806 12.148,11.806l33.364,-11.634c0,0 -7.186,-31.825 -46.197,-31.825c-27.033,0 -43.972,15.228 -43.972,39.182c0,17.452 11.122,30.626 31.311,36.786l10.608,3.251c7.7,2.395 11.635,4.791 11.635,9.923c0,4.449 -3.593,7.187 -8.726,7.187c-11.806,0 -13.003,-13.517 -13.003,-13.517l-33.365,9.581c0,0 7.015,35.76 47.052,35.76Z" style="fill:#e5e5e5;fill-rule:nonzero;"/><rect x="107.562" y="2.571" width="38.668" height="124.046" style="fill:#e5e5e5;fill-rule:nonzero;"/><path d="M203.719,92.91l0,-13.345l47.907,0l0,-30.798l-47.907,0l0,-12.661l51.329,0l0,-33.535l-89.313,0l0,124.046l89.998,0l0,-33.707l-52.014,0Z" style="fill:#e5e5e5;fill-rule:nonzero;"/><path d="M313.222,128.67c28.573,0 46.881,-15.57 46.881,-40.208c0,-17.281 -10.951,-30.285 -29.943,-36.444l-11.976,-3.935c-8.898,-2.909 -13.175,-5.304 -13.175,-9.753c0,-3.764 2.909,-6.16 7.357,-6.16c10.779,0 12.148,11.806 12.148,11.806l33.364,-11.634c0,0 -7.186,-31.825 -46.196,-31.825c-27.034,0 -43.972,15.228 -43.972,39.182c0,17.452 11.121,30.626 31.311,36.786l10.608,3.251c7.699,2.395 11.634,4.791 11.634,9.923c0,4.449 -3.593,7.187 -8.726,7.187c-11.805,0 -13.003,-13.517 -13.003,-13.517l-33.364,9.581c0,0 7.015,35.76 47.052,35.76Z" style="fill:#e5e5e5;fill-rule:nonzero;"/><path d="M477.989,2.571l-113.438,0l0,35.246l37.642,0l0,88.8l37.983,0l0,-88.8l37.813,0l0,-35.246Z" style="fill:#e5e5e5;fill-rule:nonzero;"/><path d="M553.101,126.617l41.748,0l-46.196,-124.046l-44.828,0l-46.025,124.046l41.234,0l5.989,-18.65l42.09,0l5.988,18.65Zm-37.641,-51.501l9.068,-28.744l1.54,-7.358l1.54,7.187l9.239,28.915l-21.387,0Z" style="fill:#e5e5e5;fill-rule:nonzero;"/></g><g><path d="M90.794,211.294l35.931,-13.687c-10.437,-23.954 -30.285,-39.182 -60.056,-39.182c-37.984,0 -66.044,27.205 -66.044,63.991c0,37.813 28.232,64.162 65.189,64.162c30.969,0 52.356,-15.741 61.595,-39.866l-35.759,-13.859c-4.449,11.977 -12.833,17.794 -25.665,17.794c-15.57,0 -26.691,-10.608 -26.691,-28.231c0,-17.281 11.292,-28.402 27.204,-28.402c11.635,0 19.334,5.646 24.296,17.28Z" style="fill:#e6e6e6;fill-rule:nonzero;"/><path d="M221,284.524l41.748,0l-46.197,-124.046l-44.827,0l-46.026,124.046l41.235,0l5.988,-18.649l42.09,0l5.989,18.649Zm-37.642,-51.5l9.068,-28.745l1.54,-7.357l1.54,7.186l9.239,28.916l-21.387,0Z" style="fill:#e6e6e6;fill-rule:nonzero;"/><path d="M355.996,160.478l-113.438,0l0,35.247l37.642,0l0,88.799l37.984,0l0,-88.799l37.812,0l0,-35.247Z" style="fill:#e6e6e6;fill-rule:nonzero;"/><path d="M365.92,284.524l37.299,0l0,-59.713l49.79,59.713l31.824,0l0,-124.046l-37.299,0l0,60.569l-49.79,-60.569l-31.824,0l0,124.046Z" style="fill:#e6e6e6;fill-rule:nonzero;"/><path d="M586.636,284.524l41.748,0l-46.196,-124.046l-44.828,0l-46.025,124.046l41.234,0l5.989,-18.649l42.09,0l5.988,18.649Zm-37.641,-51.5l9.068,-28.745l1.54,-7.357l1.54,7.186l9.239,28.916l-21.387,0Z" style="fill:#e6e6e6;fill-rule:nonzero;"/><path d="M685.531,160.478l-48.934,0l0,124.046l37.984,0l0,-30.968l10.779,0c31.824,0 52.185,-18.137 52.185,-46.71c0,-28.745 -19.847,-46.368 -52.014,-46.368Zm0,57.66l-10.95,0l0,-22.585l11.121,0c8.555,0 13.175,3.936 13.175,11.293c0,7.186 -4.791,11.292 -13.346,11.292Z" style="fill:#e6e6e6;fill-rule:nonzero;"/></g><g><path d="M48.687,445.44c28.573,0 46.881,-15.57 46.881,-40.208c0,-17.281 -10.95,-30.284 -29.942,-36.444l-11.977,-3.935c-8.897,-2.909 -13.175,-5.304 -13.175,-9.753c0,-3.764 2.909,-6.159 7.358,-6.159c10.779,0 12.148,11.805 12.148,11.805l33.364,-11.634c0,0 -7.186,-31.824 -46.197,-31.824c-27.033,0 -43.972,15.227 -43.972,39.181c0,17.452 11.121,30.627 31.311,36.786l10.608,3.251c7.699,2.395 11.635,4.791 11.635,9.924c0,4.448 -3.593,7.186 -8.726,7.186c-11.806,0 -13.004,-13.517 -13.004,-13.517l-33.364,9.582c0,0 7.015,35.759 47.052,35.759Z" style="fill:#e5e5e5;fill-rule:nonzero;"/><path d="M108.571,443.387l37.3,0l0,-59.713l49.789,59.713l31.825,0l0,-124.046l-37.3,0l0,60.568l-49.789,-60.568l-31.825,0l0,124.046Z" style="fill:#e5e5e5;fill-rule:nonzero;"/><path d="M308.072,445.44c38.668,0 66.728,-26.862 66.728,-64.162c0,-37.812 -27.718,-63.99 -66.728,-63.99c-38.326,0 -66.728,27.204 -66.728,63.99c0,37.813 28.402,64.162 66.728,64.162Zm0,-35.931c-16.939,0 -28.06,-10.608 -28.06,-28.231c0,-17.281 11.292,-28.402 28.06,-28.402c17.281,0 28.06,10.608 28.06,28.402c0,17.11 -11.121,28.231 -28.06,28.231Z" style="fill:#e5e5e5;fill-rule:nonzero;"/><path d="M451.965,445.44c38.669,0 66.729,-26.862 66.729,-64.162c0,-37.812 -27.718,-63.99 -66.729,-63.99c-38.326,0 -66.728,27.204 -66.728,63.99c0,37.813 28.402,64.162 66.728,64.162Zm0,-35.931c-16.938,0 -28.06,-10.608 -28.06,-28.231c0,-17.281 11.293,-28.402 28.06,-28.402c17.281,0 28.06,10.608 28.06,28.402c0,17.11 -11.121,28.231 -28.06,28.231Z" style="fill:#e5e5e5;fill-rule:nonzero;"/><path d="M524.682,443.387l102.317,0l0,-34.733l-49.277,0l48.421,-61.938l0,-27.375l-99.75,0l0,34.39l46.71,0l-48.421,61.254l0,28.402Z" style="fill:#e5e5e5;fill-rule:nonzero;"/><path d="M679.526,409.681l0,-13.346l47.907,0l0,-30.798l-47.907,0l0,-12.661l51.329,0l0,-33.535l-89.313,0l0,124.046l89.998,0l0,-33.706l-52.014,0Z" style="fill:#e5e5e5;fill-rule:nonzero;"/></g><rect id="Cursor" x="748.099" y="409.232" width="51.167" height="33.863" style="fill:#e0e0e0;fill-opacity:0.599114;"/></g></svg>